<svg width="47" height="46" viewBox="0 0 47 46" fill="none" xmlns="http://www.w3.org/2000/svg">
<path d="M23.5175 45.5C18.3591 45.504 13.356 43.7354 9.34606 40.4904C5.33617 37.2455 2.56304 32.7212 1.49115 27.6754C0.419262 22.6296 1.11371 17.3687 3.45817 12.7739C5.80264 8.17902 9.65475 4.52929 14.3693 2.43597C19.0839 0.342637 24.3745 -0.0671561 29.3552 1.27522C34.3359 2.6176 38.704 5.63062 41.7281 9.80963C44.7521 13.9887 46.2484 19.0799 45.9663 24.2305C45.6842 29.3812 43.6408 34.2786 40.1784 38.1023" stroke="#14110D" stroke-miterlimit="10"/>
<path d="M27.7983 23.945C27.7951 24.4732 27.6531 24.9912 27.3865 25.4471C27.2529 25.6581 27.0958 25.8532 26.9181 26.0286C26.7414 26.1968 26.5432 26.3408 26.3285 26.4566C26.1144 26.5775 25.8867 26.6724 25.6501 26.7393C25.4077 26.8038 25.1579 26.8364 24.9071 26.8362H22.6539C22.4031 26.8364 22.1533 26.8038 21.9109 26.7393C21.6733 26.6753 21.4452 26.5802 21.2325 26.4566C21.0178 26.3408 20.8196 26.1968 20.6429 26.0286C20.4654 25.8552 20.3107 25.6598 20.1826 25.4471C20.0464 25.2293 19.9429 24.9925 19.8757 24.7445C19.8024 24.4817 19.767 24.2097 19.7707 23.9369V22.8224C19.7619 22.4343 19.8363 22.0488 19.9888 21.6918C20.1394 21.3486 20.3562 21.0385 20.6268 20.7792C20.9069 20.5057 21.2393 20.2915 21.604 20.1492C21.9491 20.0042 22.3199 19.9301 22.6943 19.9312H24.9475C25.1983 19.931 25.4481 19.9636 25.6905 20.0281C25.927 20.095 26.1548 20.1899 26.3689 20.3107C26.5835 20.4266 26.7818 20.5705 26.9584 20.7388C27.1381 20.9124 27.2954 21.1078 27.4268 21.3203C27.6935 21.7762 27.8355 22.2942 27.8387 22.8224L27.7983 23.945ZM26.5385 22.8224C26.5431 22.6 26.5017 22.379 26.417 22.1733C26.3322 21.9677 26.2058 21.7817 26.0458 21.6271C25.8977 21.4829 25.7219 21.3703 25.529 21.296C25.3311 21.2178 25.1198 21.1793 24.9071 21.183H22.6539C22.4464 21.1797 22.2405 21.2182 22.0482 21.296C21.8523 21.3654 21.6734 21.4755 21.5232 21.6191C21.3593 21.7731 21.2294 21.9598 21.1417 22.167C21.0541 22.3742 21.0108 22.5975 21.0144 22.8224V23.945C21.0124 24.1782 21.0591 24.4093 21.1517 24.6234C21.2346 24.8196 21.3585 24.9958 21.5152 25.1402C21.6647 25.2826 21.8402 25.395 22.032 25.4714C22.2298 25.5496 22.4412 25.5881 22.6539 25.5844H24.9071C25.1363 25.5885 25.3641 25.5473 25.5774 25.4633C25.7681 25.381 25.9429 25.2662 26.0943 25.1241C26.2369 24.9732 26.3469 24.7945 26.4173 24.5991C26.5007 24.3913 26.5419 24.1689 26.5385 23.945V22.8224Z" fill="#14110D"/>
<path d="M15.0552 23.5976C15.0564 23.8708 15.0183 24.1428 14.9421 24.4052C14.8734 24.6527 14.7701 24.8892 14.6352 25.1078C14.507 25.3179 14.3523 25.5106 14.1749 25.6812C13.9948 25.8476 13.7972 25.9938 13.5853 26.1173C13.3688 26.2371 13.1382 26.3293 12.8989 26.3919C12.6593 26.4569 12.4122 26.4895 12.164 26.4888H9.91073C9.65987 26.4894 9.41003 26.4568 9.16773 26.3919C8.93048 26.3307 8.70237 26.2384 8.48933 26.1173C8.26594 25.9971 8.05953 25.8478 7.87555 25.6731C7.69561 25.5027 7.5382 25.31 7.40714 25.0997C7.27821 24.8791 7.17781 24.643 7.10832 24.3971C7.03213 24.1347 6.99405 23.8627 6.99526 23.5895V22.4992C6.99123 22.0986 7.07388 21.7019 7.23754 21.3363C7.38669 20.9828 7.60342 20.6618 7.87555 20.3914C8.14403 20.1384 8.45591 19.936 8.79623 19.7937C9.14301 19.6551 9.51303 19.5839 9.8865 19.5838H12.1397C12.3879 19.5831 12.6351 19.6157 12.8746 19.6807C13.114 19.7433 13.3446 19.8355 13.5611 19.9553C13.7729 20.0787 13.9706 20.225 14.1507 20.3914C14.3281 20.5619 14.4828 20.7547 14.611 20.9648C14.7459 21.1834 14.8492 21.4199 14.9179 21.6674C14.9941 21.9298 15.0322 22.2018 15.031 22.475L15.0552 23.5976ZM13.7953 22.4992C13.7967 22.2687 13.75 22.0403 13.658 21.8289C13.5745 21.6351 13.4538 21.4595 13.3027 21.312C13.1515 21.1659 12.9731 21.0506 12.7777 20.9728C12.5823 20.8969 12.3735 20.8612 12.164 20.8678H9.91073C9.70126 20.8627 9.49279 20.8984 9.29694 20.9728C9.10305 21.0452 8.92683 21.1581 8.78007 21.304C8.62318 21.4499 8.4969 21.6256 8.40857 21.8208C8.31599 22.0349 8.26922 22.266 8.27128 22.4992V23.6299C8.26922 23.8631 8.31599 24.0942 8.40857 24.3083C8.49451 24.5028 8.61801 24.6784 8.772 24.8251C8.92304 24.9656 9.09812 25.0778 9.28887 25.1563C9.48724 25.2318 9.69855 25.2674 9.91073 25.2612H12.164C12.3931 25.2647 12.6208 25.2235 12.8343 25.1401C13.0281 25.0639 13.2041 24.9484 13.3511 24.8009C13.4936 24.6529 13.6036 24.4769 13.6742 24.284C13.7562 24.0758 13.7973 23.8537 13.7953 23.6299V22.4992Z" fill="#14110D"/>
<path d="M34.5896 22.8061H38.0704C38.2706 22.8093 38.4692 22.8419 38.6599 22.903C38.8774 22.9688 39.0803 23.0758 39.2576 23.218C39.4505 23.3737 39.6076 23.5693 39.7179 23.7914C39.8481 24.0576 39.9118 24.3513 39.9036 24.6475V25.229C39.9025 25.3596 39.8862 25.4897 39.8552 25.6166C39.827 25.7581 39.7836 25.8962 39.726 26.0285C39.6607 26.1668 39.5794 26.2969 39.4837 26.4161C39.3863 26.5443 39.2691 26.6561 39.1364 26.7473C38.9935 26.8475 38.8353 26.9238 38.668 26.9734C38.4745 27.0334 38.273 27.0634 38.0704 27.0622H35.7041C35.5303 27.062 35.357 27.043 35.1872 27.0057C35.0013 26.9648 34.82 26.9053 34.6461 26.828C34.4641 26.7445 34.2932 26.6387 34.1373 26.5131C33.9665 26.3892 33.8188 26.236 33.7012 26.0608C33.5714 25.8694 33.4708 25.6598 33.4024 25.4389C33.3236 25.1771 33.2855 24.9047 33.2893 24.6313V22.2812C33.2855 22.0078 33.3236 21.7354 33.4024 21.4736C33.4787 21.263 33.5847 21.0645 33.7174 20.884C33.8369 20.708 33.9842 20.5526 34.1535 20.4237C34.3113 20.3008 34.4819 20.1952 34.6623 20.1087C34.8362 20.0314 35.0175 19.9719 35.2034 19.931C35.3737 19.8976 35.5466 19.8787 35.7202 19.8745H38.9507V21.1828H35.7202C35.5649 21.1939 35.4123 21.2294 35.268 21.2878C35.1373 21.342 35.0171 21.4185 34.9126 21.514C34.8164 21.6117 34.7397 21.7268 34.6865 21.8532C34.6334 21.9952 34.606 22.1457 34.6057 22.2973L34.5896 22.8061ZM34.5896 24.1225V24.6475C34.5885 24.8053 34.6187 24.9617 34.6784 25.1078C34.7351 25.2382 34.8171 25.356 34.9197 25.4544C35.0223 25.5529 35.1434 25.63 35.276 25.6812C35.4162 25.7302 35.5637 25.7548 35.7122 25.7539H38.0704C38.1403 25.7581 38.2104 25.7473 38.2758 25.7222C38.3413 25.6971 38.4007 25.6584 38.4499 25.6085C38.5409 25.5032 38.5897 25.3681 38.5872 25.229V24.6475C38.593 24.5043 38.5471 24.3639 38.458 24.2518C38.4026 24.2045 38.3384 24.1688 38.2691 24.1466C38.1998 24.1244 38.1267 24.1162 38.0542 24.1225H34.5896Z" fill="#14110D"/>
<path d="M15.9746 23.3392H18.6962" stroke="#14110D" stroke-miterlimit="10"/>
<path d="M29.0977 23.4926H31.8112" stroke="#14110D" stroke-miterlimit="10"/>
</svg>
