<svg width="47" height="46" viewBox="0 0 47 46" fill="none" xmlns="http://www.w3.org/2000/svg">
<path d="M34.945 26.4827C34.8706 29.1125 33.8916 31.637 32.1721 33.6335C30.4525 35.6299 28.0968 36.9771 25.4993 37.4495C22.9019 37.9218 20.2204 37.4906 17.9039 36.2281C15.5875 34.9656 13.7766 32.9484 12.7746 30.5144C11.7727 28.0803 11.6404 25.3771 12.4 22.8575C13.1596 20.3379 14.7649 18.1547 16.9472 16.6737C19.1294 15.1927 21.756 14.5036 24.3873 14.722C27.0185 14.9403 29.4946 16.0528 31.4009 17.8731" stroke="#14110D" stroke-miterlimit="10"/>
<path d="M42.3015 0.5H4.69851C2.65587 0.5 1 2.14992 1 4.1852V41.8148C1 43.8501 2.65587 45.5 4.69851 45.5H42.3015C44.3441 45.5 46 43.8501 46 41.8148V4.1852C46 2.14992 44.3441 0.5 42.3015 0.5Z" stroke="#14110D" stroke-miterlimit="10"/>
<path d="M13.3639 3.5697H5.78801C4.81832 3.5697 4.03223 4.35296 4.03223 5.31916V8.98817C4.03223 9.95437 4.81832 10.7376 5.78801 10.7376H13.3639C14.3336 10.7376 15.1197 9.95437 15.1197 8.98817V5.31916C15.1197 4.35296 14.3336 3.5697 13.3639 3.5697Z" stroke="#14110D" stroke-miterlimit="10"/>
<path d="M39.8953 10.3651C41.7719 10.3651 43.2931 8.8493 43.2931 6.97952C43.2931 5.10975 41.7719 3.59399 39.8953 3.59399C38.0188 3.59399 36.4976 5.10975 36.4976 6.97952C36.4976 8.8493 38.0188 10.3651 39.8953 10.3651Z" stroke="#14110D" stroke-miterlimit="10"/>
<path d="M32.2469 10.3326C34.1234 10.3326 35.6447 8.81683 35.6447 6.94705C35.6447 5.07728 34.1234 3.56152 32.2469 3.56152C30.3704 3.56152 28.8491 5.07728 28.8491 6.94705C28.8491 8.81683 30.3704 10.3326 32.2469 10.3326Z" stroke="#14110D" stroke-miterlimit="10"/>
<path d="M23.5333 40.9076C31.4255 40.9076 37.8234 34.5328 37.8234 26.669C37.8234 18.8052 31.4255 12.4303 23.5333 12.4303C15.6411 12.4303 9.24316 18.8052 9.24316 26.669C9.24316 34.5328 15.6411 40.9076 23.5333 40.9076Z" stroke="#14110D" stroke-miterlimit="10"/>
</svg>
