<svg width="47" height="46" viewBox="0 0 47 46" fill="none" xmlns="http://www.w3.org/2000/svg">
<path d="M41.4834 36.2205V20.3447" stroke="#14110D" stroke-width="0.8" stroke-miterlimit="10"/>
<path d="M5.7627 30.664V36.2206H41.4833V30.664H5.7627Z" stroke="#14110D" stroke-width="0.5" stroke-miterlimit="10"/>
<path d="M11.3193 36.2206V33.8392" stroke="#14110D" stroke-width="0.5" stroke-miterlimit="10"/>
<path d="M18.4634 36.2206V33.8392" stroke="#14110D" stroke-width="0.5" stroke-miterlimit="10"/>
<path d="M26.4014 36.2206V33.8392" stroke="#14110D" stroke-width="0.5" stroke-miterlimit="10"/>
<path d="M33.5454 36.2206V33.8392" stroke="#14110D" stroke-width="0.5" stroke-miterlimit="10"/>
<path d="M5.81055 10.0252L5.81055 25.6964" stroke="#14110D" stroke-width="0.8" stroke-miterlimit="10"/>
<path d="M41.8877 15.3259L41.9175 10.4376L6.19756 10.2199L6.16776 15.1081L41.8877 15.3259Z" stroke="#14110D" stroke-width="0.5" stroke-miterlimit="10"/>
<path d="M35.6636 10.5105V12.6299" stroke="#14110D" stroke-width="0.5" stroke-miterlimit="10"/>
<path d="M28.2573 10.4655V12.585" stroke="#14110D" stroke-width="0.5" stroke-miterlimit="10"/>
<path d="M20.9233 10.3492V12.4686" stroke="#14110D" stroke-width="0.5" stroke-miterlimit="10"/>
<path d="M13.6206 10.3764V12.4958" stroke="#14110D" stroke-width="0.5" stroke-miterlimit="10"/>
<path d="M42.547 0.5H4.45299C2.54596 0.5 1 2.04596 1 3.95299V42.047C1 43.954 2.54596 45.5 4.45299 45.5H42.547C44.4541 45.5 46 43.954 46 42.047V3.95299C46 2.04596 44.4541 0.5 42.547 0.5Z" stroke="#14110D" stroke-miterlimit="10"/>
</svg>
