<svg width="99" height="99" viewBox="0 0 99 99" fill="none" xmlns="http://www.w3.org/2000/svg">
<path d="M49.5377 98C38.4185 98.0086 27.634 94.1963 18.9904 87.2016C10.3469 80.2069 4.36922 70.4546 2.0587 59.5781C-0.251815 48.7016 1.2451 37.3614 6.29873 27.457C11.3524 17.5526 19.6558 9.68536 29.8183 5.17308C39.9808 0.660796 51.3851 -0.222536 62.1213 2.67103C72.8574 5.5646 82.2732 12.0593 88.7917 21.0674C95.3103 30.0755 98.5356 41.0499 97.9275 52.1525C97.3193 63.2551 92.9147 73.8116 85.4514 82.0538" stroke="#14110D" stroke-miterlimit="10"/>
<path d="M58.7645 51.5368C58.7575 52.6753 58.4514 53.7919 57.8767 54.7748C57.5888 55.2296 57.2501 55.6501 56.867 56.0282C56.4862 56.3908 56.0589 56.7011 55.5962 56.9508C55.1347 57.2113 54.6438 57.4159 54.1339 57.5601C53.6114 57.6991 53.0729 57.7694 52.5323 57.769H47.6753C47.1346 57.7694 46.5962 57.6991 46.0737 57.5601C45.5617 57.4221 45.07 57.2172 44.6114 56.9508C44.1487 56.7011 43.7213 56.3908 43.3406 56.0282C42.9578 55.6543 42.6244 55.2331 42.3483 54.7748C42.0546 54.3052 41.8317 53.7948 41.6868 53.2602C41.5287 52.6937 41.4525 52.1075 41.4605 51.5194V49.117C41.4415 48.2804 41.6018 47.4494 41.9305 46.6798C42.2552 45.9401 42.7225 45.2716 43.3058 44.7127C43.9096 44.1232 44.626 43.6614 45.4122 43.3548C46.1562 43.0423 46.9554 42.8825 47.7624 42.8848H52.6193C53.16 42.8845 53.6984 42.9547 54.2209 43.0937C54.7308 43.238 55.2217 43.4425 55.6832 43.703C56.1459 43.9527 56.5733 44.263 56.954 44.6256C57.3413 45 57.6804 45.421 57.9637 45.879C58.5384 46.8619 58.8446 47.9785 58.8515 49.117L58.7645 51.5368ZM56.0488 49.117C56.0587 48.6376 55.9696 48.1613 55.7868 47.7179C55.6041 47.2746 55.3318 46.8737 54.9869 46.5406C54.6677 46.2297 54.2886 45.9868 53.8727 45.8268C53.4463 45.6581 52.9908 45.5753 52.5323 45.5831H47.6753C47.2282 45.5762 46.7842 45.6591 46.3697 45.8268C45.9475 45.9764 45.5619 46.2137 45.2381 46.5232C44.8848 46.8553 44.6047 47.2576 44.4158 47.7043C44.2269 48.1509 44.1335 48.6321 44.1414 49.117V51.5368C44.137 52.0395 44.2378 52.5377 44.4373 52.9991C44.6161 53.4221 44.8831 53.802 45.2207 54.1133C45.5431 54.4202 45.9213 54.6625 46.3349 54.827C46.7613 54.9957 47.2168 55.0785 47.6753 55.0707H52.5323C53.0264 55.0795 53.5174 54.9907 53.9772 54.8096C54.3881 54.6322 54.7651 54.3848 55.0913 54.0784C55.3988 53.7531 55.6358 53.3679 55.7877 52.9469C55.9674 52.4988 56.0562 52.0195 56.0488 51.5368V49.117Z" fill="#14110D"/>
<path d="M31.2939 50.788C31.2965 51.377 31.2144 51.9633 31.0502 52.5289C30.902 53.0623 30.6793 53.5722 30.3886 54.0434C30.1123 54.4963 29.7788 54.9117 29.3964 55.2794C29.0082 55.6381 28.5821 55.9533 28.1255 56.2195C27.6589 56.4776 27.1618 56.6764 26.6458 56.8113C26.1295 56.9514 25.5967 57.0217 25.0616 57.0202H20.2047C19.6639 57.0216 19.1254 56.9513 18.6031 56.8113C18.0917 56.6794 17.6 56.4804 17.1408 56.2195C16.6593 55.9604 16.2143 55.6384 15.8177 55.262C15.4299 54.8947 15.0906 54.4793 14.8081 54.026C14.5302 53.5504 14.3137 53.0415 14.1639 52.5115C13.9997 51.9459 13.9176 51.3596 13.9202 50.7706V48.4205C13.9115 47.557 14.0897 46.7018 14.4425 45.9136C14.764 45.1517 15.2311 44.4598 15.8177 43.8769C16.3965 43.3317 17.0688 42.8953 17.8023 42.5886C18.5498 42.2898 19.3474 42.1362 20.1525 42.136H25.0094C25.5444 42.1346 26.0772 42.2048 26.5936 42.3449C27.1095 42.4798 27.6066 42.6787 28.0733 42.9368C28.5299 43.203 28.956 43.5182 29.3441 43.8769C29.7266 44.2446 30.0601 44.66 30.3364 45.1129C30.6271 45.5841 30.8498 46.0939 30.9979 46.6274C31.1622 47.193 31.2443 47.7793 31.2417 48.3682L31.2939 50.788ZM28.5782 48.4205C28.5812 47.9235 28.4804 47.4313 28.2822 46.9756C28.1021 46.5577 27.8419 46.1792 27.5162 45.8614C27.1903 45.5464 26.8059 45.298 26.3847 45.1303C25.9634 44.9666 25.5134 44.8896 25.0616 44.904H20.2047C19.7532 44.8929 19.3038 44.9697 18.8816 45.1303C18.4637 45.2862 18.0838 45.5295 17.7675 45.844C17.4293 46.1586 17.1571 46.5373 16.9667 46.9582C16.7671 47.4196 16.6663 47.9177 16.6708 48.4205V50.8576C16.6663 51.3604 16.7671 51.8585 16.9667 52.32C17.1519 52.7393 17.4182 53.1179 17.7501 53.4341C18.0757 53.7369 18.4531 53.9787 18.8642 54.1479C19.2918 54.3106 19.7473 54.3875 20.2047 54.3742H25.0616C25.5556 54.3816 26.0464 54.2929 26.5065 54.113C26.9244 53.9488 27.3037 53.6998 27.6207 53.3819C27.9277 53.0629 28.1649 52.6835 28.317 52.2677C28.4937 51.8188 28.5824 51.3401 28.5782 50.8576V48.4205Z" fill="#14110D"/>
<path d="M73.4049 49.0822H80.9079C81.3395 49.0889 81.7677 49.1593 82.1788 49.2911C82.6476 49.433 83.0849 49.6634 83.467 49.97C83.883 50.3057 84.2215 50.7273 84.4593 51.206C84.7399 51.7798 84.8773 52.4129 84.8597 53.0513V54.3048C84.8571 54.5864 84.8221 54.8668 84.7552 55.1404C84.6944 55.4454 84.601 55.743 84.4767 56.0282C84.336 56.3263 84.1607 56.6067 83.9544 56.8638C83.7445 57.1401 83.4918 57.381 83.2059 57.5775C82.8978 57.7935 82.5569 57.9581 82.1962 58.065C81.7791 58.1944 81.3446 58.259 80.9079 58.2565H75.8073C75.4326 58.2559 75.0591 58.2151 74.6931 58.1346C74.2924 58.0465 73.9017 57.9182 73.5268 57.7516C73.1345 57.5715 72.7661 57.3435 72.43 57.0727C72.0617 56.8056 71.7435 56.4756 71.49 56.0978C71.2103 55.6853 70.9932 55.2335 70.8458 54.7574C70.6761 54.193 70.5939 53.6059 70.6021 53.0165V47.9507C70.5939 47.3613 70.6761 46.7742 70.8458 46.2098C71.0102 45.7559 71.2389 45.328 71.5248 44.939C71.7825 44.5597 72.1 44.2246 72.4648 43.9467C72.8051 43.6818 73.1727 43.4542 73.5616 43.2678C73.9365 43.1012 74.3272 42.9729 74.7279 42.8848C75.0952 42.8127 75.4679 42.7719 75.8421 42.7629H82.8055V45.5831H75.8421C75.5073 45.607 75.1783 45.6834 74.8672 45.8094C74.5855 45.9262 74.3263 46.0912 74.1012 46.2969C73.8939 46.5075 73.7285 46.7556 73.6138 47.028C73.4993 47.3343 73.4404 47.6585 73.4397 47.9855L73.4049 49.0822ZM73.4049 51.9198V53.0513C73.4026 53.3915 73.4677 53.7287 73.5964 54.0436C73.7186 54.3246 73.8954 54.5786 74.1166 54.7908C74.3377 55.003 74.5988 55.1691 74.8846 55.2796C75.1867 55.3851 75.5047 55.4381 75.8247 55.4363H80.9079C81.0588 55.4453 81.2098 55.422 81.3509 55.3679C81.492 55.3139 81.6199 55.2304 81.7261 55.1229C81.9221 54.8959 82.0275 54.6046 82.0221 54.3048V53.0513C82.0345 52.7428 81.9356 52.4401 81.7435 52.1983C81.6242 52.0965 81.4857 52.0195 81.3363 51.9717C81.1869 51.9239 81.0294 51.9062 80.8731 51.9198H73.4049Z" fill="#14110D"/>
<path d="M33.2793 50.2312H39.1459" stroke="#14110D" stroke-miterlimit="10"/>
<path d="M61.5684 50.5618H67.4176" stroke="#14110D" stroke-miterlimit="10"/>
</svg>
