<svg width="100" height="99" viewBox="0 0 100 99" fill="none" xmlns="http://www.w3.org/2000/svg">
<path d="M88.8984 77.9976V43.7764" stroke="#14110D" stroke-width="0.8" stroke-miterlimit="10"/>
<path d="M11.6348 66.0204V77.9978H88.8971V66.0204H11.6348Z" stroke="#14110D" stroke-width="0.5" stroke-miterlimit="10"/>
<path d="M23.6543 77.9977V72.8645" stroke="#14110D" stroke-width="0.5" stroke-miterlimit="10"/>
<path d="M39.1074 77.9977V72.8645" stroke="#14110D" stroke-width="0.5" stroke-miterlimit="10"/>
<path d="M56.2754 77.9977V72.8645" stroke="#14110D" stroke-width="0.5" stroke-miterlimit="10"/>
<path d="M71.7285 77.9977V72.8645" stroke="#14110D" stroke-width="0.5" stroke-miterlimit="10"/>
<path d="M11.7383 21.5322L11.7383 55.3123" stroke="#14110D" stroke-width="0.8" stroke-miterlimit="10"/>
<path d="M89.7715 32.9579L89.8359 22.4209L12.0209 21.9481L11.9564 32.4851L89.7715 32.9579Z" stroke="#14110D" stroke-width="0.5" stroke-miterlimit="10"/>
<path d="M76.3105 22.5782V27.1467" stroke="#14110D" stroke-width="0.5" stroke-miterlimit="10"/>
<path d="M60.291 22.4813V27.0498" stroke="#14110D" stroke-width="0.5" stroke-miterlimit="10"/>
<path d="M44.4277 22.2308V26.7993" stroke="#14110D" stroke-width="0.5" stroke-miterlimit="10"/>
<path d="M28.6309 22.2891V26.8577" stroke="#14110D" stroke-width="0.5" stroke-miterlimit="10"/>
<path d="M91.1986 1H8.80267C4.67783 1 1.33398 4.33239 1.33398 8.44311V90.5569C1.33398 94.6676 4.67783 98 8.80267 98H91.1986C95.3235 98 98.6673 94.6676 98.6673 90.5569V8.44311C98.6673 4.33239 95.3235 1 91.1986 1Z" stroke="#14110D" stroke-miterlimit="10"/>
</svg>
