<svg width="99" height="99" viewBox="0 0 99 99" fill="none" xmlns="http://www.w3.org/2000/svg">
<path d="M93.0908 43.2974L49.2363 5.84229" stroke="#14110D" stroke-miterlimit="10"/>
<path d="M28.1035 56.1816H40.7996L40.5087 69.6135L56.952 68.9633L57.0547 82.1213L70.9656 82.3951" stroke="#14110D" stroke-miterlimit="10"/>
<path d="M89.65 1H9.34998C4.73842 1 1 4.73841 1 9.34997V89.65C1 94.2616 4.73842 98 9.34998 98H89.65C94.2616 98 98 94.2616 98 89.65V9.34997C98 4.73841 94.2616 1 89.65 1Z" stroke="#14110D" stroke-miterlimit="10"/>
<path d="M87.8697 38.3182V90.1975H71.5291L71.2382 48.653L49.1142 33.8523L27.8286 48.3792L27.2639 90.2831L11.7617 90.1975L11.8473 37.0006" stroke="#14110D" stroke-miterlimit="10"/>
<path d="M5.77344 42.7156L49.6279 5.2605" stroke="#14110D" stroke-miterlimit="10"/>
</svg>
