<svg width="99" height="99" viewBox="0 0 99 99" fill="none" xmlns="http://www.w3.org/2000/svg">
<path d="M49.5183 98C38.3993 98.0042 27.6164 94.1877 18.9757 87.1897C10.335 80.1917 4.36124 70.4373 2.05488 59.5601C-0.251474 48.6829 1.24967 37.3434 6.30688 27.441C11.3641 17.5386 19.6703 9.67458 29.8342 5.16601C39.9982 0.657448 51.4027 -0.221832 62.1376 2.67544C72.8726 5.57271 82.286 12.0706 88.8014 21.0808C95.3168 30.0909 98.5383 41.0662 97.9266 52.1684C97.3148 63.2706 92.9069 73.8255 85.441 82.0653" stroke="#14110D" stroke-miterlimit="10"/>
<path d="M47.8672 73.9065L29.3405 37.114" stroke="#14110D" stroke-miterlimit="10" stroke-linecap="round"/>
<path d="M48.0744 73.7847L71.5938 30.5383" stroke="#14110D" stroke-miterlimit="10" stroke-linecap="round"/>
</svg>
