<svg width="99" height="99" viewBox="0 0 99 99" fill="none" xmlns="http://www.w3.org/2000/svg">
<path d="M90.7964 1.09497H8.20355C4.22513 1.09497 1 4.32012 1 8.29853V90.8914C1 94.8698 4.22513 98.095 8.20355 98.095H90.7964C94.7748 98.095 98 94.8698 98 90.8914V8.29853C98 4.32012 94.7748 1.09497 90.7964 1.09497Z" stroke="#14110D" stroke-miterlimit="10"/>
<path d="M51.2539 1L51.5448 98.308" stroke="#14110D" stroke-miterlimit="10"/>
<path d="M43.86 58.2787C41.3239 58.1729 38.9268 57.091 37.1698 55.2591C35.4127 53.4271 34.4316 50.987 34.4316 48.4487C34.4316 45.9104 35.4127 43.4702 37.1698 41.6383C38.9268 39.8064 41.3239 38.7245 43.86 38.6187" stroke="#14110D" stroke-miterlimit="10"/>
<path d="M58.7305 58.2787C61.2666 58.1729 63.6637 57.091 65.4208 55.2591C67.1778 53.4271 68.1588 50.987 68.1588 48.4487C68.1588 45.9104 67.1778 43.4702 65.4208 41.6383C63.6637 39.8064 61.2666 38.7245 58.7305 38.6187" stroke="#14110D" stroke-miterlimit="10"/>
</svg>
