<svg width="98" height="97" viewBox="0 0 98 97" fill="none" xmlns="http://www.w3.org/2000/svg">
<path d="M13.1218 48.4097L14.3813 39.9146L14.42 39.6537L14.2264 39.4744L7.91496 33.6283L16.4083 32.1896L16.6673 32.1457L16.7781 31.9075L20.4033 24.1155L24.3979 31.7404L24.52 31.9735L24.7812 32.0048L33.3354 33.0303L27.3168 39.166L27.1322 39.3542L27.1831 39.6128L28.8417 48.0299L21.1305 44.2182L20.8957 44.1021L20.6666 44.2291L13.1218 48.4097Z" stroke="black"/>
<path d="M41.2779 47.8106L42.5221 39.3146L42.5602 39.0542L42.3671 38.8753L36.0556 33.0292L44.5489 31.5905L44.8079 31.5466L44.9187 31.3084L48.5453 23.5136L52.5562 31.1252L52.6785 31.3574L52.9391 31.3886L61.4916 32.4138L55.4579 38.5493L55.2729 38.7375L55.3238 38.9964L56.9827 47.431L49.2712 43.6191L49.0361 43.5029L48.8069 43.6302L41.2779 47.8106Z" stroke="black"/>
<path d="M69.0084 46.9882L70.2676 38.4942L70.3064 38.2329L70.1124 38.0536L63.7859 32.2079L72.2944 30.7692L72.5536 30.7254L72.6644 30.4871L76.2901 22.6941L80.2844 30.3033L80.4063 30.5355L80.6667 30.5672L89.2233 31.6082L83.2031 37.7456L83.0186 37.9338L83.0695 38.1924L84.7282 46.6105L76.9994 42.7976L76.7644 42.6817L76.5354 42.8089L69.0084 46.9882Z" stroke="black"/>
<path d="M27.2017 72.3976L28.461 63.9036L28.4997 63.6423L28.3057 63.463L21.9793 57.6174L30.4878 56.1786L30.7469 56.1348L30.8577 55.8965L34.4834 48.1035L38.4777 55.7127L38.5999 55.9454L38.8609 55.9767L47.4167 57.0024L41.396 63.1555L41.2119 63.3436L41.2628 63.6018L42.9215 72.0199L35.1927 68.207L34.9578 68.0912L34.7287 68.2183L27.2017 72.3976Z" stroke="black"/>
<path d="M55.7542 71.5783L57.0137 63.0823L57.0525 62.8206L56.858 62.6413L50.5334 56.8126L59.0236 55.3744L59.2821 55.3306L59.393 55.0931L63.0352 47.2975L67.0305 54.9085L67.1527 55.1412L67.4137 55.1725L75.9679 56.198L69.9492 62.3337L69.7647 62.5218L69.8156 62.7803L71.4747 71.2159L63.7455 67.4028L63.511 67.2872L63.2822 67.4137L55.7542 71.5783Z" stroke="black"/>
<path d="M49.1184 96.2376C75.5079 96.2376 96.9008 74.9179 96.9008 48.6188C96.9008 22.3197 75.5079 1 49.1184 1C22.7289 1 1.33594 22.3197 1.33594 48.6188C1.33594 74.9179 22.7289 96.2376 49.1184 96.2376Z" stroke="#14110D" stroke-width="1.27" stroke-miterlimit="10"/>
</svg>
