<svg width="97" height="97" viewBox="0 0 97 97" fill="none" xmlns="http://www.w3.org/2000/svg">
<path d="M72.4544 55.8907C72.2977 61.4464 70.2371 66.7797 66.6175 70.9973C62.9979 75.215 58.0391 78.0611 52.5715 79.0589C47.1039 80.0568 41.4594 79.1459 36.5833 76.4787C31.7071 73.8116 27.8953 69.5501 25.7862 64.4079C23.6771 59.2658 23.3987 53.5551 24.9976 48.2321C26.5966 42.9091 29.9757 38.2971 34.5693 35.1683C39.1629 32.0395 44.6919 30.5838 50.2307 31.0451C55.7694 31.5064 60.9815 33.8566 64.9942 37.7022" stroke="#14110D" stroke-miterlimit="10"/>
<path d="M87.939 1H8.7853C4.48559 1 1 4.48561 1 8.78532V88.2812C1 92.5809 4.48559 96.0665 8.7853 96.0665H87.939C92.2387 96.0665 95.7243 92.5809 95.7243 88.2812V8.78532C95.7243 4.48561 92.2387 1 87.939 1Z" stroke="#14110D" stroke-miterlimit="10"/>
<path d="M27.0258 7.48486H11.0787C9.03752 7.48486 7.38281 9.13957 7.38281 11.1808V18.9319C7.38281 20.973 9.03752 22.6277 11.0787 22.6277H27.0258C29.067 22.6277 30.7217 20.973 30.7217 18.9319V11.1808C30.7217 9.13957 29.067 7.48486 27.0258 7.48486Z" stroke="#14110D" stroke-miterlimit="10"/>
<path d="M82.8749 21.8408C86.825 21.8408 90.0271 18.6387 90.0271 14.6886C90.0271 10.7385 86.825 7.53638 82.8749 7.53638C78.9249 7.53638 75.7227 10.7385 75.7227 14.6886C75.7227 18.6387 78.9249 21.8408 82.8749 21.8408Z" stroke="#14110D" stroke-miterlimit="10"/>
<path d="M66.7753 21.7722C70.7254 21.7722 73.9275 18.5701 73.9275 14.62C73.9275 10.6699 70.7254 7.46777 66.7753 7.46777C62.8252 7.46777 59.623 10.6699 59.623 14.62C59.623 18.5701 62.8252 21.7722 66.7753 21.7722Z" stroke="#14110D" stroke-miterlimit="10"/>
<path d="M48.432 86.3647C65.045 86.3647 78.5124 72.8973 78.5124 56.2843C78.5124 39.6713 65.045 26.2039 48.432 26.2039C31.8191 26.2039 18.3516 39.6713 18.3516 56.2843C18.3516 72.8973 31.8191 86.3647 48.432 86.3647Z" stroke="#14110D" stroke-miterlimit="10"/>
</svg>
