<svg width="99" height="99" viewBox="0 0 99 99" fill="none" xmlns="http://www.w3.org/2000/svg">
<path d="M55.7708 78.9898L52.6396 82.412C51.9309 83.1774 51.0783 83.7958 50.1305 84.2316C49.1827 84.6674 48.1584 84.9122 47.116 84.9519C46.0736 84.9916 45.0335 84.8256 44.0553 84.4631C43.0771 84.1007 42.1799 83.5491 41.415 82.8397L11.54 55.1376C10.7745 54.429 10.1561 53.5764 9.72029 52.6286C9.28447 51.6808 9.03962 50.6564 8.9999 49.614C8.96017 48.5716 9.12633 47.5316 9.48876 46.5534C9.85118 45.5752 10.4029 44.678 11.1122 43.9131L34.8275 18.3499" stroke="#14110D" stroke-miterlimit="10"/>
<path d="M70.4178 70.6401L67.2353 76.3721C66.7271 77.2841 66.044 78.0868 65.2252 78.7345C64.4064 79.3821 63.468 79.8619 62.4636 80.1464C61.4591 80.4309 60.4085 80.5145 59.3717 80.3924C58.3349 80.2703 57.3323 79.9449 56.4214 79.4349L20.8998 59.6208C19.9884 59.1143 19.186 58.4329 18.5386 57.6157C17.8912 56.7984 17.4114 55.8614 17.1268 54.8583C16.8423 53.8553 16.7586 52.8059 16.8805 51.7704C17.0023 50.7349 17.3274 49.7337 17.837 48.8241L34.8278 18.3672" stroke="#14110D" stroke-miterlimit="10"/>
<path d="M34.7656 18.6287L82.1798 29.427C84.2329 29.8946 86.0161 31.1586 87.1372 32.9409C88.2583 34.7233 88.6255 36.8781 88.158 38.9311L82.1812 65.1741C81.9475 66.1902 81.5159 67.1503 80.9112 67.9996C80.3064 68.8489 79.5404 69.5707 78.6566 70.124C77.7729 70.6772 76.7888 71.0509 75.7607 71.2238C74.7325 71.3967 73.6803 71.3654 72.6642 71.1317L33.0077 62.1002C30.9547 61.6326 29.1715 60.3686 28.0504 58.5862C26.9293 56.8039 26.5621 54.6491 27.0297 52.5961L34.7656 18.6287Z" stroke="#14110D" stroke-miterlimit="10"/>
<path d="M89.65 1H9.34998C4.73842 1 1 4.73841 1 9.34997V89.65C1 94.2616 4.73842 98 9.34998 98H89.65C94.2616 98 98 94.2616 98 89.65V9.34997C98 4.73841 94.2616 1 89.65 1Z" stroke="#14110D" stroke-miterlimit="10"/>
<path d="M30.2419 22.1317C29.4719 21.2762 29.6259 20.78 29.7115 19.5309C29.7977 18.3669 30.3428 17.2848 31.2268 16.5227C32.1109 15.7606 33.2615 15.3809 34.4255 15.4671C35.5895 15.5533 36.6715 16.0984 37.4336 16.9825C38.1957 17.8665 38.5754 19.0171 38.4892 20.1811C38.4514 20.8062 38.2789 21.4158 37.9836 21.968C37.6882 22.5203 37.2771 23.0022 36.7782 23.3808" stroke="#8BB59D" stroke-linejoin="bevel"/>
</svg>
