<svg width="34" height="34" viewBox="0 0 34 34" fill="none" xmlns="http://www.w3.org/2000/svg">
<circle cx="17" cy="17" r="16.75" fill="black" fill-opacity="0.11" stroke="white" stroke-width="0.5"/>
<path d="M25.7741 20.0282L21.3453 18.0435C21.1447 17.9575 20.9257 17.9229 20.7083 17.9429C20.4909 17.9629 20.282 18.0368 20.1003 18.1579C20.0819 18.1697 20.0644 18.1829 20.0478 18.1972L17.7331 20.166C17.7091 20.1791 17.6824 20.1864 17.655 20.1874C17.6277 20.1884 17.6005 20.183 17.5756 20.1716C16.0878 19.4535 14.5466 17.9216 13.8256 16.4544C13.8136 16.4299 13.8074 16.403 13.8074 16.3757C13.8074 16.3484 13.8136 16.3214 13.8256 16.2969L15.8009 13.9532C15.8151 13.9359 15.8283 13.9177 15.8403 13.8988C15.9598 13.7165 16.0319 13.5073 16.0502 13.2901C16.0685 13.0729 16.0325 12.8545 15.9453 12.6547L13.9747 8.23349C13.8628 7.9725 13.6692 7.75484 13.4231 7.61319C13.177 7.47154 12.8916 7.41353 12.6097 7.44787C11.3846 7.60893 10.2601 8.21056 9.44622 9.14034C8.63238 10.0701 8.18494 11.2644 8.18751 12.5001C8.18751 19.8407 14.1594 25.8126 21.5 25.8126C22.7356 25.8149 23.9298 25.3674 24.8595 24.5536C25.7893 23.7398 26.3909 22.6154 26.5522 21.3904C26.5865 21.1098 26.5292 20.8257 26.389 20.5802C26.2488 20.3348 26.0332 20.1412 25.7741 20.0282ZM21.5 24.6876C14.78 24.6876 9.31251 19.2201 9.31251 12.5001C9.30938 11.5381 9.65658 10.6079 10.2892 9.88331C10.9219 9.15869 11.7968 8.6892 12.7503 8.56255H12.7719C12.8097 8.56326 12.8464 8.57536 12.8771 8.59728C12.9079 8.61919 12.9314 8.6499 12.9444 8.68537L14.9225 13.1019C14.9338 13.1265 14.9396 13.1532 14.9396 13.1802C14.9396 13.2072 14.9338 13.2339 14.9225 13.2585L12.9434 15.6079C12.9288 15.6247 12.9153 15.6426 12.9031 15.6613C12.7793 15.8504 12.7064 16.0682 12.6914 16.2937C12.6765 16.5192 12.72 16.7447 12.8178 16.9485C13.6494 18.651 15.365 20.3535 17.0863 21.1851C17.2912 21.2823 17.5178 21.3248 17.7441 21.3084C17.9703 21.2919 18.1885 21.2172 18.3772 21.0913C18.395 21.0791 18.4128 21.066 18.4297 21.0519L20.7434 19.0832C20.7663 19.0709 20.7915 19.0637 20.8174 19.0621C20.8433 19.0605 20.8692 19.0645 20.8934 19.0738L25.3231 21.0585C25.3593 21.0739 25.3897 21.1003 25.4101 21.1339C25.4305 21.1676 25.4397 21.2068 25.4366 21.246C25.3106 22.2 24.8415 23.0755 24.1171 23.7089C23.3926 24.3422 22.4623 24.6901 21.5 24.6876Z" fill="white"/>
</svg>
