<svg width="47" height="46" viewBox="0 0 47 46" fill="none" xmlns="http://www.w3.org/2000/svg">
<path d="M43.7223 20.1225L23.3774 2.74646" stroke="#14110D" stroke-miterlimit="10"/>
<path d="M13.5737 26.0997H19.4637L19.3287 32.331L26.957 32.0293L27.0047 38.1336L33.4582 38.2606" stroke="#14110D" stroke-miterlimit="10"/>
<path d="M42.1263 0.5H4.8737C2.73432 0.5 1 2.23431 1 4.3737V41.6263C1 43.7657 2.73432 45.5 4.8737 45.5H42.1263C44.2657 45.5 46 43.7657 46 41.6263V4.3737C46 2.23431 44.2657 0.5 42.1263 0.5Z" stroke="#14110D" stroke-miterlimit="10"/>
<path d="M41.301 17.8125V41.8803H33.7203L33.5853 22.607L23.3216 15.7407L13.4469 22.48L13.1849 41.9199L5.99316 41.8803L6.03286 17.2013" stroke="#14110D" stroke-miterlimit="10"/>
<path d="M3.21484 19.8526L23.5597 2.47656" stroke="#14110D" stroke-miterlimit="10"/>
</svg>
