<svg width="54" height="45" viewBox="0 0 54 45" fill="none" xmlns="http://www.w3.org/2000/svg">
<path d="M40.56 44.745C36.4033 44.745 33.3933 43.3117 31.53 40.445C29.6667 37.5783 28.735 34.2817 28.735 30.555C28.735 28.405 29.0217 26.04 29.595 23.46C30.1683 20.88 31.2433 18.3 32.82 15.72C34.54 12.9967 36.905 10.345 39.915 7.765C42.925 5.04167 46.9383 2.46166 51.955 0.0249954L53.245 1.96C50.3783 4.68333 48.085 7.04833 46.365 9.05499C44.7883 11.0617 43.57 12.925 42.71 14.645C41.85 16.365 41.2767 17.9417 40.99 19.375C40.8467 20.8083 40.775 22.3133 40.775 23.89C40.775 25.0367 41.1333 25.8967 41.85 26.47C42.5667 26.9 43.355 27.4733 44.215 28.19C45.505 29.05 46.6517 29.91 47.655 30.77C48.8017 31.4867 49.375 33.0633 49.375 35.5C49.375 38.08 48.515 40.3017 46.795 42.165C45.075 43.885 42.9967 44.745 40.56 44.745ZM12.18 44.745C8.02333 44.745 4.94167 43.3117 2.935 40.445C1.07167 37.5783 0.14 34.2817 0.14 30.555C0.14 28.405 0.426667 26.1117 1 23.675C1.57333 21.095 2.72 18.4433 4.44 15.72C6.16 12.9967 8.525 10.345 11.535 7.765C14.545 5.04167 18.5583 2.46166 23.575 0.0249954L24.865 1.96C21.9983 4.68333 19.705 7.04833 17.985 9.05499C16.4083 11.0617 15.19 12.925 14.33 14.645C13.47 16.365 12.8967 17.9417 12.61 19.375C12.4667 20.8083 12.395 22.3133 12.395 23.89C12.395 25.0367 12.6817 25.8967 13.255 26.47C13.9717 27.0433 14.76 27.545 15.62 27.975C16.7667 28.6917 17.9133 29.5517 19.06 30.555C20.35 31.415 20.995 33.0633 20.995 35.5C20.995 38.08 20.135 40.3017 18.415 42.165C16.8383 43.885 14.76 44.745 12.18 44.745Z" fill="#6C8D7A"/>
</svg>
